# xmcd
#
# Track frame offsets: 
#        150
#        14943
#        27956
#        48953
#        69743
#        89243
#        109817
#        132806
#        151687
#        199140
#        229566
#
# Disc length: 3205 seconds
#
# Revision: 3
# Processed by: cddbd v1.5.2PL0 Copyright (c) Steve Scherf et al.
# Submitted via: ExactAudioCopy v1.0b4
#
DISCID=940c830b
DTITLE=Neal Black and the Healers - Gone Back To Texas
DYEAR=2000
DGENRE=Blues
TTITLE0=Never Say Die
TTITLE1=Did You Ever (Jail In San Antonio)
TTITLE2=Things Have Got To Change
TTITLE3=Postcard From A Hitman (Road To Heaven)
TTITLE4=I Can See Clearly Now
TTITLE5=Poor Boy
TTITLE6=As The Years Go Passing By
TTITLE7=This Whisky Bottle
TTITLE8=Who Do You Love
TTITLE9=Lisa's Lullaby
TTITLE10=Plastic Jesus (For J.P.)
EXTD=
EXTT0=
EXTT1=
EXTT2=
EXTT3=
EXTT4=
EXTT5=
EXTT6=
EXTT7=
EXTT8=
EXTT9=
EXTT10=
PLAYORDER=
